<svg id="Layer_1" data-name="Layer 1" xmlns="http://www.w3.org/2000/svg" viewBox="0 0 231.65 19.95"><defs><style>.cls-1{fill:#231f20;}</style></defs><title>not-a-robot</title><path class="cls-1" d="M71.2,29.79a0.74,0.74,0,0,1-.27.44l-0.23.36L70.61,31l-0.19.06,0,0.13a0.76,0.76,0,0,0-.48.52,1.4,1.4,0,0,1-.5.42,0.78,0.78,0,0,1-.19.15l-0.1.19-0.19,0-0.55.29-0.71.08-0.19,0-0.31.06L67,32.77a1.34,1.34,0,0,1-.42-0.29,0.57,0.57,0,0,1-.38-0.4,1.2,1.2,0,0,1-.36-0.67V31.34l-0.15-.25,0,0-0.13-.38-0.19-.4,0-.48-0.21-.27-0.31-1.81a3.59,3.59,0,0,1-.06-0.61l0-.1-0.11-.15-0.19.25-0.77.79-0.28.44-0.14.3L63.07,29l-0.17.17,0,0.1-0.29.65-0.17.21-0.21,0-0.19.19a0.52,0.52,0,0,1-.4.55l0,0a1,1,0,0,1-.42.57L61,31.78q-0.46.42-.61,0.53a0.75,0.75,0,0,1-.23.36,1.22,1.22,0,0,1-.15.17,0.7,0.7,0,0,1-.59.5l-0.23.06a0.85,0.85,0,0,1-.69-0.48l-0.31-.52,0.13-.5-0.06-.27,0,0,0-.27-0.23-.5,0.17-.25-0.08-.27L58.34,30l0-.48-0.06-.08,0.13-.29,0-.15,0-.34L58.45,28a1.28,1.28,0,0,1-.06-0.27V27.56l-0.06-.17,0.06-.67V25.59L58.76,25a2.21,2.21,0,0,1,.88.28,0.74,0.74,0,0,1,.25.64v0.19L60,26.32,60,26.76,60,27.6,59.9,28,60,28.44V28.8L59.77,29,60,29.41l-0.16.23,0,0.23L59.9,30.1l-0.17.44-0.06.19v0.19l0.1,0.21,0.36-.36a0.42,0.42,0,0,1,.21-0.42A0.42,0.42,0,0,1,60.51,30L60.45,30l0.27-.25,0.06-.08V29.45l0.34-.25L61.2,29l0.19-.13,0.82-.92-0.69.78v0l0-.15,0.27-.31L62,27.94V27.73l0.31-.1,0-.27,0.08-.08,0-.1V27l0.29-.29V26.62a0.33,0.33,0,0,1,0-.08,0.4,0.4,0,0,1,.42-0.42,0.75,0.75,0,0,1,.57-0.44l0.13-.19,0,0a1,1,0,0,1,.57-0.38l0.19-.23h0.5l0.25,0.29,0.23,0.13,0,0.06,0.15,0,0,0.44L66.22,26l-0.15.46L66.31,27v0.59l0.17,0.8,0,0.76,0.19,0.44,0.13,0.55a0.79,0.79,0,0,1,.19.36l0.38,0.1V31l0.21,0.23v0.06l0.08,0,0.08,0.13,0.08-.1,0.1,0a0.68,0.68,0,0,0,.48-0.42l0.25-.06,0.06-.11A0.45,0.45,0,0,1,69,30.5l0.15,0,0.08-.08,0-.1,0.06-.08a0.69,0.69,0,0,0,.27-0.44l0.23-.25,0-.19L70,29l0.4-.15L71,29.07l0.19,0.61a0.06,0.06,0,0,0,0,0v0.06Z" transform="translate(-58.09 -18.89)"/><path class="cls-1" d="M79.28,28.27l-0.13.38a4.61,4.61,0,0,1-.06.86L79,29.72V30l-0.1.15-0.06.29-0.23.23-0.15.52-0.17.06-0.08.23-0.25.15L77.75,32l-0.25.13,0,0.25-0.4.15a1.2,1.2,0,0,1-.67.48l-0.08,0a0.9,0.9,0,0,1-.78.44,0.92,0.92,0,0,1-.48.13l-0.21.15-0.21.06L74.37,34H74.1L73.8,34l-0.36-.15-0.9-.06-0.32-.48-0.46-.48,0.1-.34-0.31-.71,0.1-.27L71.6,31l0.06-.31V30.29a0.74,0.74,0,0,1,.22-0.59A2.24,2.24,0,0,1,72.16,29h0.11l-0.06-.15,0.06-.29V28.25A1.09,1.09,0,0,0,72.46,28l-0.06-.29V27.62A1.35,1.35,0,0,0,72.54,27L73,26.41l0.15-.13,0-.08h0.08l0.31-.36,0-.48,0.52-.19a0.91,0.91,0,0,0,.38-0.63h0.27a0.89,0.89,0,0,1,.42-0.13,0.79,0.79,0,0,1,.36.08l0.23,0,0.55-.21,0.29,0.27,0.23,0.15H77l0.31,0.17h0.17a6.7,6.7,0,0,1,.63.69l0,0.1,0.15,0.08,0.44,0.57,0.4,1v0.21Zm-1.39.5,0-.1a0.53,0.53,0,0,1-.17-0.31l0.06-.1-0.19-.4,0-.4-0.08-.1A0.71,0.71,0,0,1,77.25,27a0.41,0.41,0,0,1-.19-0.42l-0.13,0-0.25-.42L76.49,26,76,25.84l-0.17,0a0.17,0.17,0,0,1-.17-0.08l-0.42.46L75,26.76,74.58,27l-0.06.23-0.21.1-0.08.54L74,28a2,2,0,0,0-.08.54l-0.34.31,0.1,0.06a0.57,0.57,0,0,1-.21.44,4.07,4.07,0,0,1-.19.42v0.5L73,30.83l0,0.1v0.58L73,31.81l0,0.29,0.19,0.27,0.29,0.1,0.1,0H74.3l0.08-.21h0.08a0.14,0.14,0,0,1,.15.06l0.19-.06L75,32.37l0.27-.19,0-.06,0.19,0a1.54,1.54,0,0,1,.69-0.47l0-.11,0.42-.3,0.23-.34,0.34-.17,0-.1,0.11-.23V30.09l0.25-.21,0.08-.15,0.1-.13a1.32,1.32,0,0,1-.08-0.36,0.78,0.78,0,0,1,.13-0.4Z" transform="translate(-58.09 -18.89)"/><path class="cls-1" d="M87.35,25.65A0.5,0.5,0,0,1,87,26a0.71,0.71,0,0,1-.31.19,2.87,2.87,0,0,0-.42.21l-0.44-.15a1.4,1.4,0,0,1-.86.25l-0.25-.06-0.19.15H83.92l-0.36.25a1.29,1.29,0,0,0-.44-0.08,1,1,0,0,1-.29.08,0.52,0.52,0,0,1-.23-0.06l-0.06.8V29.7l0.06,0.38v0.29L82.9,31a0.2,0.2,0,0,0-.06.15,0.48,0.48,0,0,0,.46.23l0,0.25,0.15,0.06,0.25,0.17L83.9,32l0.29,0a1.19,1.19,0,0,1,.38.06,2.35,2.35,0,0,0,.36-0.29,0.56,0.56,0,0,1,.36-0.17h0.13a1,1,0,0,1,.67-0.5,1,1,0,0,1,.74.27v0.15a0.85,0.85,0,0,1-.5.9,1,1,0,0,1-.8.57l-0.25.23H85l-0.48.13a2.12,2.12,0,0,1-.48,0,0.89,0.89,0,0,1-.36-0.08H83.4l-0.73-.4-0.19-.06L82,32.2l-0.25-.27-0.46-1.05-0.17-1,0.06-.25L81,29.41l0.1-.29L81,28.65l0.15-.15,0-.27L81.15,28l0.06-.38-0.1-.34,0.1-.1V26.83l-0.15-.06-0.4.08-0.38-.25H80.23a0.58,0.58,0,0,1-.63-0.68V25.85l-0.25-.4,0.4-.38,0.52,0.08,0.27,0,0.4,0.1h0.44V24.79l-0.27-.59,0.27-.15-0.1-.32,0-.65-0.17-.27A0.8,0.8,0,0,1,81,22.4a0.64,0.64,0,0,1,.1-0.38l0.06-.29,0.17-.17a5.2,5.2,0,0,1,.76-0.1,0.64,0.64,0,0,1,.73.61l-0.06.11a0.66,0.66,0,0,1,.13.36,0.67,0.67,0,0,1,0,.11l0,0.13,0,0.15,0.08,0.27,0,0.1,0,0.3-0.19.25,0.1,0.42-0.08.51L82.9,25l-0.17.38,0.65-.1,1.16,0.1,0.92-.15,0.31,0,0.1,0H86.7Q87.35,25.19,87.35,25.65Z" transform="translate(-58.09 -18.89)"/><path class="cls-1" d="M96.61,24.68L96.4,25l0.17,0.5-0.27.31-0.1.44-0.06.1,0,0.1a0.6,0.6,0,0,1-.15.44l0,0.06V27a0.7,0.7,0,0,1,.06.27,0.36,0.36,0,0,1,0,.15l0,0.08L96,27.75,96,28l-0.17.17,0.06,0.29L96,28.61l-0.19.17v0.34l-0.15.34,0.1,0.34L95.68,30l0.21,0.15-0.29.48,0,0.06,0.21,0-0.15.48v0.08a1,1,0,0,1,0,.23l0,0.06,0.34,0L96.25,32l-0.15.31,0.23,0a1.34,1.34,0,0,1,.15.44l-0.31.31a1.81,1.81,0,0,1-.42.29l-0.36.19-0.1-.1-0.21.1-0.65-.75V32.44a2.7,2.7,0,0,1-.13-0.77V31.54l-0.13-1.23,0.17-.88-0.13-.5-0.36.59-0.19.55-0.17.08-0.29.46-0.52.49-0.15.25-0.46.4L92,32l-0.67.42-0.71.8-0.4.08-0.27.21a1,1,0,0,1-.8-0.4,1.53,1.53,0,0,1-1-1.33l0.1-.06,0-.13,0-.25-0.13-.27,0.13-.29,0-.44,0.15-.69V29.58a0.19,0.19,0,0,1,0-.08,0.7,0.7,0,0,1,0-.21,0.44,0.44,0,0,1,0-.17,1.63,1.63,0,0,1,.13-0.48l0.15-.06a0.3,0.3,0,0,1-.13-0.23V28.07a0.4,0.4,0,0,1,.25-0.38A1.26,1.26,0,0,1,89,27.27l-0.1-.17,0.25-.31V26.7A1.14,1.14,0,0,1,89.43,26l0-.38,0.08-.08V25.44a0.16,0.16,0,0,1,0-.06,0.28,0.28,0,0,1,.08-0.21V25A2.74,2.74,0,0,1,90,24.41a4.4,4.4,0,0,0,.52-0.74l0.1,0.1,0.23-.1,0.1,0,0.69-.31,1.62,0.08v0.15l0.5,0.1a0.62,0.62,0,0,1,.63.31,0.61,0.61,0,0,1,0-.15V23.74l0.44,0.4,0.4,0.08L96,24l0.27,0.52Zm-2,1.09-0.08-.15-0.17,0-0.65-.52L93.29,25H93l0-.08L92.74,25l-0.19-.08H92L92.07,25l-0.48.17-0.08.11-0.06,0a3,3,0,0,0-.53.52l-0.15.5-0.08.19,0.21,0.29-0.36.27,0,0.08a1.56,1.56,0,0,0-.23.78l-0.17.21v0.38L90,28.72l0,0.19-0.06,0v0.29l-0.06.1a1.52,1.52,0,0,1,0,.4l0,0.1-0.19.4,0.08,0.13-0.15.21L89.74,31l-0.23.29,0,0.4v0.06l0.08,0,0.1,0L90,31.57l0-.17,0.29,0,0.06-.15,1.23-1,0.13,0,0.15-.36a2.4,2.4,0,0,0,.36-0.17l0.14-.33h0.17l-0.06-.36,0.29,0a1.47,1.47,0,0,1,.14-0.21,2.14,2.14,0,0,1,.2-0.23L94.07,27l0.17-.31,0-.08,0.15-.23,0-.23L94.59,26Z" transform="translate(-58.09 -18.89)"/><path class="cls-1" d="M107,25.38l-0.17.69-0.78.1-0.42.27-0.27-.13-0.29.16-0.31.12-0.21.14v0.08l-0.44.22-0.29.38h-0.15a2.7,2.7,0,0,1-.48.44l-0.29.48-0.1,0a5,5,0,0,0-.15.5l-0.29.1-0.13.25-0.17.21,0,0.31-0.17.06v0.31l-0.06.06,0.15,0.23-0.31.13,0,0.27-0.21.36,0.13,0.27-0.27.38a1.79,1.79,0,0,1,0,.29v0.08a0.34,0.34,0,0,0,0,.1l0,0.19,0.36,0.38-0.27.48-0.25.19-0.59.29-0.78-.31V33.08l-0.08-.19,0.06-.31a4.38,4.38,0,0,1,0-.5,0.89,0.89,0,0,1,0-.17V31.76l0-.21a0.46,0.46,0,0,1-.15-0.34,0.68,0.68,0,0,1,.15-0.38q0-.1,0-0.63l0.06-.06-0.06-.27,0-.25,0-.15L99.72,29l-0.13-.21,0.08-.23-0.08-.27a2.17,2.17,0,0,0,0-.34,0.73,0.73,0,0,0-.08-0.42l0.08-.13L99.53,27l-0.19-.27,0.11-.34-0.08-.13-0.08-.5V25.61a0.48,0.48,0,0,1-.1-0.31,1,1,0,0,1,.92-0.71l0.52,0.1,0.1,0.4,0.21,0.27-0.06.57q0.06,0.42.15,0.92l0.06,0.34a1,1,0,0,1,0,.23,0.48,0.48,0,0,1-.1.27l0.06,0.42,0,0.46-0.08.21L101,28.86l0,0.21a0.59,0.59,0,0,0,.15-0.31l0.08-.31a0.41,0.41,0,0,1,.19-0.19l0.08-.31,0.29-.17,0-.25,0.23-.25L102.3,27a1.33,1.33,0,0,1,.52-0.38l0-.06,0.19-.29,0.21,0,0.06-.06,0.08-.13,0.23-.13,0.13-.15,0.13,0,0.17-.08,0.08-.13,0.25-.13,0.36-.23,0.5-.17,0.31,0v0a0,0,0,0,0,0,0h0a0.65,0.65,0,0,0,.25-0.08,0.46,0.46,0,0,1,.29-0.08l0.29,0A0.55,0.55,0,0,1,107,25.38Z" transform="translate(-58.09 -18.89)"/><path class="cls-1" d="M114.67,28.27l-0.13.38a4.61,4.61,0,0,1-.06.86l-0.13.21V30l-0.1.15-0.06.29-0.23.23-0.15.52-0.17.06-0.08.23-0.25.15-0.17.36-0.25.13,0,0.25-0.4.15a1.2,1.2,0,0,1-.67.48l-0.08,0a0.9,0.9,0,0,1-.78.44,0.92,0.92,0,0,1-.48.13l-0.21.15-0.21.06-0.27.21h-0.27l-0.29.06-0.36-.15-0.9-.06-0.32-.48-0.46-.48,0.1-.34-0.31-.71,0.1-.27L107,31l0.06-.31V30.29a0.74,0.74,0,0,1,.22-0.59,2.24,2.24,0,0,1,.28-0.69h0.11l-0.06-.15,0.06-.29V28.25a1.09,1.09,0,0,0,.19-0.25l-0.06-.29V27.62a1.35,1.35,0,0,0,.15-0.61l0.44-.61,0.15-.13,0-.08h0.08l0.31-.36,0-.48,0.52-.19a0.91,0.91,0,0,0,.38-0.63h0.27a0.89,0.89,0,0,1,.42-0.13,0.79,0.79,0,0,1,.36.08l0.23,0,0.55-.21,0.29,0.27,0.23,0.15h0.17l0.31,0.17h0.17a6.7,6.7,0,0,1,.63.69l0,0.1,0.15,0.08,0.44,0.57,0.4,1v0.21Zm-1.39.5,0-.1a0.53,0.53,0,0,1-.17-0.31l0.06-.1-0.19-.4,0-.4-0.08-.1a0.71,0.71,0,0,1-.29-0.33,0.41,0.41,0,0,1-.19-0.42l-0.13,0-0.25-.42L111.88,26l-0.44-.17-0.17,0a0.17,0.17,0,0,1-.17-0.08l-0.42.46-0.27.58L110,27l-0.06.23-0.21.1-0.08.54-0.25.13a2,2,0,0,0-.08.54l-0.34.31,0.1,0.06a0.57,0.57,0,0,1-.21.44,4.07,4.07,0,0,1-.19.42v0.5l-0.23.56,0,0.1v0.58l-0.08.29,0,0.29,0.19,0.27,0.29,0.1,0.1,0h0.71l0.08-.21h0.08a0.14,0.14,0,0,1,.15.06l0.19-.06,0.17,0.06,0.27-.19,0-.06,0.19,0a1.54,1.54,0,0,1,.69-0.47l0-.11,0.42-.3,0.23-.34,0.34-.17,0-.1,0.11-.23V30.09l0.25-.21,0.08-.15,0.1-.13a1.32,1.32,0,0,1-.08-0.36,0.78,0.78,0,0,1,.13-0.4Z" transform="translate(-58.09 -18.89)"/><path class="cls-1" d="M124.43,29.91l-0.19.19,0.06,0.5-0.48.59v0.25l-0.17.17,0.13,0.19-0.42.4-0.27.46-0.44.25a0.86,0.86,0,0,1-.55.27l-0.17.38-0.21-.19-0.21.27a0.46,0.46,0,0,0-.17-0.27l-0.15-.08-0.17.19H121l-0.17.17-0.27-.08-0.44.15-0.27-.23H119.6a2.52,2.52,0,0,1-.85-0.19l-0.3-.15-0.11-.1L118,32.92l-0.15-.44a2.43,2.43,0,0,1-.74-0.17l-0.44-.95,0.1-.15-0.1-.17V30.67l-0.13-.21,0.13-.25a1,1,0,0,1-.11-0.4,0.19,0.19,0,0,1,0-.08V29l0.08-.21V27.54l0.08-.29-0.08-.13,0.21-.59-0.1-.19V25.88l0.1-.13,0-.29-0.08-.21,0.19-.67-0.15-.84,0.06-.06V22.46l-0.15-.61a0.34,0.34,0,0,1,.15-0.21l-0.1-.15a0.4,0.4,0,0,0,.1-0.25,0.58,0.58,0,0,0-.21-0.38,0.66,0.66,0,0,1,.08-0.34l-0.08-.21,0.1-.23-0.34-.71,0.34-.06v0l0.73-.38,0.38,0.44,0,0.21,0.31,0.23,0,0.31a3.49,3.49,0,0,1,0,.46,0.39,0.39,0,0,1,.19.27,0.23,0.23,0,0,1-.08.15l0.08,0.08-0.08.34,0.15,0.38-0.06.15L118.7,22l-0.13.27-0.11.55c0,0.08,0,.21-0.07.38v0.9l-0.08.34a1.52,1.52,0,0,1,0,.38l0,0.06a2.65,2.65,0,0,1,.23.27l-0.23.44,0.06,0.25,0,0.13a1.55,1.55,0,0,1-.06.4l0,0.08,0,0.23,0,0.31-0.06.67,0.27,0.06,0-.65,0.15-.44,0.08,0,0.13-.32a1.86,1.86,0,0,1,.34-0.71,0.67,0.67,0,0,1,.13-0.17l0.06-.06v0l0.08-.25,0.25-.27,0.15-.15,0-.08,0.13-.17a0.44,0.44,0,0,1,.19-0.4l0-.17,0.27-.08,0.1-.06,0-.13V23.44l0.3-.06,0.16-.06-0.15-.15,0.34-.08,0.36-.27h0.65l0.4,0.23,0.13,0,0.36,0.5,0,0.21,0.17,0,0.06,0.44,0.21,0.17v0.31l0.13,0.15L123.87,25l0.08,0.67v0.06a0.56,0.56,0,0,0,.13.28,0.47,0.47,0,0,1,.06.56l0.25,0.11a1.19,1.19,0,0,1-.15.46l0.06,0.46a1,1,0,0,1,.08.31,1.13,1.13,0,0,1,0,.23l0,0.9,0.08,0.19-0.08.34ZM123,28.34l0-.38V27.6l-0.15-1-0.19-.69-0.27-.61-0.46-.73-0.11,0-0.08.1h-0.11a0.46,0.46,0,0,1-.46.4l-0.44.63-0.25.23-0.09.31-0.19.26L120,27.1a1.46,1.46,0,0,1-.27.78l-0.12.19v0.34l-0.34.46-0.17.73-0.15.08a0.33,0.33,0,0,0,0,.08v0.1a1.68,1.68,0,0,1-.19.76L118.89,31l-0.27.1,0,0.08-0.18.17,0.48,0.1,0.28,0.15,0.43-.06L120,31.72V32L120,32.1h0.5l0.34-.06a0.42,0.42,0,0,1,.38-0.19h0.06l0.17-.06-0.08-.25H122a2.19,2.19,0,0,1,.69-1V30.35l0.25-.46V29.41l0.06-.55,0-.34Z" transform="translate(-58.09 -18.89)"/><path class="cls-1" d="M133.82,28.27l-0.13.38a4.61,4.61,0,0,1-.06.86l-0.13.21V30l-0.1.15-0.06.29-0.23.23-0.15.52-0.17.06-0.08.23-0.25.15-0.17.36-0.25.13,0,0.25-0.4.15a1.2,1.2,0,0,1-.67.48l-0.08,0a0.9,0.9,0,0,1-.78.44,0.92,0.92,0,0,1-.48.13l-0.21.15-0.21.06-0.27.21h-0.27l-0.29.06L128,33.88l-0.9-.06-0.32-.48-0.46-.48,0.1-.34-0.31-.71,0.1-.27-0.06-.5,0.06-.31V30.29a0.74,0.74,0,0,1,.22-0.59A2.24,2.24,0,0,1,126.7,29h0.11l-0.06-.15,0.06-.29V28.25A1.09,1.09,0,0,0,127,28l-0.06-.29V27.62a1.35,1.35,0,0,0,.15-0.61l0.44-.61,0.15-.13,0-.08h0.08l0.31-.36,0-.48,0.52-.19a0.91,0.91,0,0,0,.38-0.63h0.27a0.89,0.89,0,0,1,.42-0.13,0.79,0.79,0,0,1,.36.08l0.23,0,0.55-.21,0.29,0.27,0.23,0.15h0.17l0.31,0.17H132a6.7,6.7,0,0,1,.63.69l0,0.1,0.15,0.08,0.44,0.57,0.4,1v0.21Zm-1.39.5,0-.1a0.53,0.53,0,0,1-.17-0.31l0.06-.1-0.19-.4,0-.4-0.08-.1a0.71,0.71,0,0,1-.29-0.33,0.41,0.41,0,0,1-.19-0.42l-0.13,0-0.25-.42L131,26l-0.44-.17-0.17,0a0.17,0.17,0,0,1-.17-0.08l-0.42.46-0.27.58-0.44.23-0.06.23-0.21.1-0.08.54-0.25.13a2,2,0,0,0-.08.54l-0.34.31,0.1,0.06a0.57,0.57,0,0,1-.21.44,4.07,4.07,0,0,1-.19.42v0.5l-0.23.56,0,0.1v0.58l-0.08.29,0,0.29,0.19,0.27,0.29,0.1,0.1,0h0.71l0.08-.21H129a0.14,0.14,0,0,1,.15.06l0.19-.06,0.17,0.06,0.27-.19,0-.06,0.19,0a1.54,1.54,0,0,1,.69-0.47l0-.11,0.42-.3,0.23-.34,0.34-.17,0-.1,0.11-.23V30.09l0.25-.21,0.08-.15,0.1-.13a1.32,1.32,0,0,1-.08-0.36,0.78,0.78,0,0,1,.13-0.4Z" transform="translate(-58.09 -18.89)"/><path class="cls-1" d="M141.88,25.65a0.5,0.5,0,0,1-.38.36,0.71,0.71,0,0,1-.31.19,2.87,2.87,0,0,0-.42.21l-0.44-.15a1.4,1.4,0,0,1-.86.25l-0.25-.06-0.19.15h-0.57l-0.36.25a1.29,1.29,0,0,0-.44-0.08,1,1,0,0,1-.29.08,0.52,0.52,0,0,1-.23-0.06l-0.06.8V29.7l0.06,0.38v0.29L137.43,31a0.2,0.2,0,0,0-.06.15,0.48,0.48,0,0,0,.46.23l0,0.25L138,31.7l0.25,0.17L138.44,32l0.29,0a1.19,1.19,0,0,1,.38.06,2.35,2.35,0,0,0,.36-0.29,0.56,0.56,0,0,1,.36-0.17H140a1,1,0,0,1,.67-0.5,1,1,0,0,1,.74.27v0.15a0.85,0.85,0,0,1-.5.9,1,1,0,0,1-.8.57l-0.25.23h-0.27l-0.48.13a2.12,2.12,0,0,1-.48,0,0.89,0.89,0,0,1-.36-0.08h-0.27l-0.73-.4L137,32.79l-0.44-.59-0.25-.27-0.46-1.05-0.17-1,0.06-.25-0.19-.23,0.1-.29-0.1-.46,0.15-.15,0-.27L135.69,28l0.06-.38-0.1-.34,0.1-.1V26.83l-0.15-.06-0.4.08-0.38-.25h-0.06a0.58,0.58,0,0,1-.63-0.68V25.85l-0.25-.4,0.4-.38,0.52,0.08,0.27,0,0.4,0.1h0.44V24.79l-0.27-.59,0.27-.15-0.1-.32,0-.65-0.17-.27a0.8,0.8,0,0,1-.15-0.42,0.64,0.64,0,0,1,.1-0.38l0.06-.29,0.17-.17a5.2,5.2,0,0,1,.76-0.1,0.64,0.64,0,0,1,.73.61l-0.06.11a0.66,0.66,0,0,1,.13.36,0.67,0.67,0,0,1,0,.11l0,0.13,0,0.15,0.08,0.27,0,0.1,0,0.3-0.19.25,0.1,0.42-0.08.51L137.43,25l-0.17.38,0.65-.1,1.16,0.1,0.92-.15,0.31,0,0.1,0h0.82Q141.88,25.19,141.88,25.65Z" transform="translate(-58.09 -18.89)"/><path class="cls-1" d="M155.83,26.53a1.57,1.57,0,0,1-.1.57l-0.08.21,0,0.36-0.25.23a0.92,0.92,0,0,0-.25.48L155,29l-0.4.38a1.69,1.69,0,0,1-.52.78,5.37,5.37,0,0,0-.74.78L153,30.86a1.17,1.17,0,0,1-.69.44l-0.57.13-0.17-.13h-0.1l0,0.1-0.17,0-0.19.1L151,31.49l-0.1.06-0.52-.44,0-.31-0.08-.1,0.06-.52V29.24l0.06-.25,0.08-.73-0.23.46-0.17.13L150,29l-0.15.06-0.21.36-0.38.38-0.15.17-0.29.29-0.08.19-0.48.32-0.52.59-0.25.06-0.21.16a0.57,0.57,0,0,1-.4-0.31,1,1,0,0,1-.61-0.86l0.13-.06,0-.15V30l-0.13-.15,0.17-.19,0.06-.36,0.15-.5V28.69a0.66,0.66,0,0,1,0-.19V28.4a1.08,1.08,0,0,1,.06-0.34l0.1,0a0.08,0.08,0,0,0,.06-0.08,0.18,0.18,0,0,0-.06-0.13l-0.06-.13a0.41,0.41,0,0,1,.23-0.36l0.06-.17V26.91l0.27-.27a0.6,0.6,0,0,1,.29-0.57l0-.27a1,1,0,0,1,.13-0.29l0-.19,0.06,0a0,0,0,0,0,0,0,0.21,0.21,0,0,0,0-.1,6.27,6.27,0,0,0,.55-0.65l0.17-.06a0.28,0.28,0,0,0,.29-0.15l0.34-.17,0.92,0v0.1l0.42,0.1,0.27,0.06a0.18,0.18,0,0,0,.19.15h0.06l0.13,0.13,0.4,0.1,0-.08-0.1.06,0.5,0L152.11,25l0.17,0.17-0.13.08,0.08,0.36-0.19.21-0.1.31-0.08.13,0.06,0.19-0.19.38a0.85,0.85,0,0,0,0,.15l0,0.08,0,0.1-0.06.15v0.17l-0.1.13,0,0.31,0,0.06-0.06.06,0,0.13,0,0.13-0.13.19,0,0.13,0,0.21-0.13.15,0.13,0.13-0.17.32,0,0.15,0.13,0-0.1.25V30h-0.06l0,0.25h0.25l0.06,0.17,0.13,0,0.34-.1,0.1,0.13,0.1-.06,0.15,0a0.35,0.35,0,0,0,.31-0.38h0.17l0.06-.17a0.8,0.8,0,0,0,.25.06,0.14,0.14,0,0,0,.15-0.17,0.53,0.53,0,0,0,.33-0.43,0.57,0.57,0,0,1,.41-0.45,0.5,0.5,0,0,1,.23-0.42V28.3a0.61,0.61,0,0,1,.27-0.59,0.42,0.42,0,0,0,.13-0.31V27.33l0.1-.25-0.1-.15V26.68a0.23,0.23,0,0,1-.06-0.17,0.5,0.5,0,0,1,.23-0.34v-0.4l-0.29-.25,0.19-.44-0.27-.21-0.08-.69-0.19,0-0.35-.61-0.19,0-0.25-.33-0.17.06L153,23.11h-0.21l-0.15-.21-0.19,0-0.27-.27h-0.31l-0.25-.17a2,2,0,0,0-.46,0,1.48,1.48,0,0,0-.42,0l-0.5,0a0.34,0.34,0,0,1-.16-0.05,0.34,0.34,0,0,0-.14-0.05l-0.08,0-0.29.21-0.34,0a1.27,1.27,0,0,1-.38,0,6.76,6.76,0,0,0-1,.44l-0.15.25-0.42,0-0.13.1a0.63,0.63,0,0,0-.48.46l-0.15,0a2.16,2.16,0,0,1-.65.5l-0.15.36-0.25.13a1.24,1.24,0,0,0-.27.44,0.49,0.49,0,0,1-.36.42v0.13l-0.21.08a0.56,0.56,0,0,1-.29.65l0,0.42-0.25.57-0.36.92-0.06.23a0.67,0.67,0,0,1,.08.23,0.49,0.49,0,0,1-.06.21l0.1,0.17-0.06.23,0,0.27,0.15,0.55,0,0.38,0.19,0.36,0,0.21h0l0.16,0.38L144.24,32v0.15l0.08,0.08,0.36,0.52,0.31,0.1L145.08,33l0.1,0a0.87,0.87,0,0,0,.76.48l0.15,0.13,0.27,0,0.17,0.19h0.25L147,34l0.06,0,0.36,0.1,0.13,0a0.69,0.69,0,0,1,.21,0,0.82,0.82,0,0,1,.34.1l0.29,0.15,0.29,0.08,0.48-.08,0.42-.13a0.6,0.6,0,0,0,.27.06,0.82,0.82,0,0,0,.34-0.1l0.4-.13,0.31,0,0.38-.21a3.52,3.52,0,0,0,1.36-.52l0.21-.17,0.55-.25,0.48,0.08H154q0.44,0,.5.68a0.77,0.77,0,0,1-.44.4L154,34a0.89,0.89,0,0,0-.53.28,0.94,0.94,0,0,1-.61.28h-0.13a5.66,5.66,0,0,0-.94.36l-0.13,0a0.61,0.61,0,0,0-.31.13l-0.4.1-0.65.1-0.38,0a1.18,1.18,0,0,1-.44-0.1h-0.67l-0.17-.1h-0.19l-0.23,0-0.5,0L147.39,35l-0.19-.1-0.25,0a1.22,1.22,0,0,0-.55-0.1l-0.31-.15h-0.19a0.6,0.6,0,0,1-.48-0.23,0.17,0.17,0,0,0-.13-0.08h0l-0.36,0-0.13-.33-0.42-.21-0.17-.27-0.38-.15-0.06-.23-0.34-.37-0.23-.37-0.11-.48-0.15-.17,0-.19-0.17-.08,0-.27-0.06-.21,0-.27h0s0,0,0,0a1.49,1.49,0,0,0-.13-0.42l-0.1-.44,0-.48,0.06-.17,0-.27,0.17-.34,0-.23,0-.21,0.17-.29,0-.5,0.48-1,0.34-.92,0.38-.36,0.38-.57,0.48-.53,0.64-.73a1.32,1.32,0,0,1,.68-0.46l0.61-.29,0.44-.31a1.11,1.11,0,0,1,.55-0.25h0.19l0.25-.23,0.57-.19c0,0.1,0,.15.08,0.15a0.32,0.32,0,0,1,.13-0.1,0.71,0.71,0,0,1,.42-0.11h0.13l0.13-.15,0.59,0.1,0.27,0.08,0.15-.13a1,1,0,0,0,.29.08,0.65,0.65,0,0,0,.27-0.08l0.25,0.08,0.08,0.08a0.81,0.81,0,0,1,.42.13l0.36,0.1a1.6,1.6,0,0,1,.9.38,1.32,1.32,0,0,1,.61.4,0.29,0.29,0,0,0,.23.17,0.48,0.48,0,0,1,.29.21l0.23,0.4,0.31,0.13,0.08,0.42L155.49,24l0.19,0.55-0.08.17L155.74,25a0.46,0.46,0,0,0-.1.34v0.13l0.19,0.21v0.46a0.08,0.08,0,0,0-.06,0,0.89,0.89,0,0,0,0,.17A0.86,0.86,0,0,1,155.83,26.53Zm-5-.29,0-.19,0-.1-0.15-.06-0.31-.29h-0.21l-0.06-.08-0.25,0-0.13,0-0.06-.06-0.38.1,0,0-0.25.08,0,0.06-0.06,0a0.81,0.81,0,0,0-.36.42l-0.21.29-0.06.13,0.06,0.17-0.17.17,0,0.08a0.76,0.76,0,0,0-.19.52l-0.08.13,0,0.25-0.08.1,0,0.15,0,0,0,0.19-0.06.08-0.06.25L147.68,29l-0.17.1,0,0.06-0.13.15,0.08,0.27-0.17.19V30l0,0.08,0.06,0,0.1,0.06a0.28,0.28,0,0,1,.19-0.23V29.87l0.27-.06,0.19-.19,0,0-0.06.06H148l0.67-.57,0.13,0,0.1-.25a0.32,0.32,0,0,0,.23-0.15l0.13-.15,0.08,0,0-.23,0.15,0,0.38-.48,0.13-.1a0.77,0.77,0,0,1,.29-0.31v0l0-.06,0.34-.34,0-.19,0.08,0,0-.06,0.08-.13,0-.15Z" transform="translate(-58.09 -18.89)"/><path class="cls-1" d="M174.9,30.71a1,1,0,0,1-.27.44,0.64,0.64,0,0,1-.19.34,0.67,0.67,0,0,1-.25.29l-0.08.13a0.26,0.26,0,0,1-.23.13l-0.1.21h-0.15l-0.1.19-0.17.06-0.13.15-0.1.08a0.76,0.76,0,0,0-.52.19,1.56,1.56,0,0,1-.57.1,1.3,1.3,0,0,1-.59-0.15q-0.34,0-.34-0.1l-0.29,0-0.06-.06-0.13-.25-0.23-.19a1,1,0,0,1-.25-0.5,2.65,2.65,0,0,1-.29-0.8l-0.21-.34V30.4l-0.15-.63,0-.25-0.13-.65,0.06-.52-0.1-.15-0.21.52-0.47.54a0.22,0.22,0,0,1-.18.09l-0.08,0-0.13.23a0.12,0.12,0,0,0,0,.08,0.14,0.14,0,0,0,.15.15,2.86,2.86,0,0,0-.21.29,0.92,0.92,0,0,1-.15.23l-0.06-.1,0,0.29a1.1,1.1,0,0,0-.38.63q-0.21.27-.65,0.78l-0.27.29c-0.07,0-.1,0-0.1,0v0a0.94,0.94,0,0,1-.44.46l-0.25.31h-0.15l-0.5.19a0.77,0.77,0,0,1-.78-0.55l0-.23-0.13-.27V32l-0.17-.61V31.17L164,31l0.06-.65V29.58l-0.1-.23,0.17-.4q0-.17-0.13-0.55l0.06-.19,0.06-.61-0.17-.44,0-.36-0.06-.19-0.15-.4-0.15.08-0.27.34-0.25.23-0.5.63,0,0.23-0.36.38L162,28.4l-0.15.17a0.79,0.79,0,0,1-.46.65l0,0.29a2.09,2.09,0,0,0-.26.34,1,1,0,0,1-.19.24l-0.18.14-0.25.36a0.52,0.52,0,0,1-.27.5v0.13a1.91,1.91,0,0,1-.34.34l0,0-0.06.3a0.49,0.49,0,0,0-.32.4l-0.06.08a0.59,0.59,0,0,1-.36.51l-0.3.28a1.4,1.4,0,0,1-.45.17,0.86,0.86,0,0,1-.73-0.9l-0.09-.46a0.29,0.29,0,0,1,0-.13,0.59,0.59,0,0,1,.08-0.29l-0.08-.4V30.39a1,1,0,0,1,.15-0.55q-0.06-.44-0.06-0.51V29l0.21-.38-0.16-.13a1.38,1.38,0,0,1-.05-0.19,1.08,1.08,0,0,1,.29-0.51l-0.15-.4,0.08-.25-0.13-.61,0-.29-0.15-.46,0.06-.32L157.49,25a1.16,1.16,0,0,1,.88-0.82,0.69,0.69,0,0,1,.47.21l0,0.21a0.61,0.61,0,0,1,.35.57,3.29,3.29,0,0,0-.06.44l-0.08,0L159.27,26l-0.16.17,0,0.08,0.17,1,0,0.82-0.06.15,0.08,0.34a0.34,0.34,0,0,1,.06.21,0.48,0.48,0,0,1-.17.34,1,1,0,0,1-.1.48l0.06,0.63v0.25l0,0,0.13-.19,0.29-.52h0.06a0.53,0.53,0,0,0,.27-0.4l0.15-.4a1.36,1.36,0,0,1,.32-0.4l0.08-.38,0.25-.38,0.08-.29,0.21-.15,0-.06a5.16,5.16,0,0,1,.46-0.44l0.13-.06,0-.21,0.1-.06a0.77,0.77,0,0,1,.52-0.59l-0.08-.06,0.08,0a0.08,0.08,0,0,1,0-.06,0.33,0.33,0,0,1,0-.13l0.34-.15,0.06-.34h0.23a0.85,0.85,0,0,1,0-.15l0.42-.34a1.79,1.79,0,0,1,.4-0.08,2.35,2.35,0,0,1,.69.15l0.21,0.29,0.08,0,0.1,0.25,0.29,0.4v0.27l0.19,0.21v0.32a2.15,2.15,0,0,1,.23.86l-0.06.25,0.13,0.36-0.23.23,0.08,0.46,0,0.13,0,0.1a1.77,1.77,0,0,0,0,.32,1.72,1.72,0,0,0,.11.42l-0.06.23,0.06,0.29-0.06.06q0,0.29.13,1v0.08l0.66-.74,0.21-.4,0.27-.4v0a0.74,0.74,0,0,1,.27-0.46,0.51,0.51,0,0,1,.21-0.31l0.17-.1a1,1,0,0,1,.44-0.59l0.1-.29,0.19-.25,0.21-.21a1,1,0,0,0,.29-0.46l0.17-.25,0.08-.31,0.23-.13,0.23-.29,0.23-.5c-0.06,0-.08,0-0.08,0l0-.08,0.16-.13,0.17-.33,0.39-.14,0.08,0,0.37,0L171,25l0.29,0.34,0.06,0.29,0,0.23-0.1.08-0.23.44-0.1.48a0.47,0.47,0,0,1,.13.38,0.53,0.53,0,0,0-.06.27l-0.06.17V28a1.27,1.27,0,0,1,0,.27l-0.08.1,0.1,0.15-0.17.19c0.08,0,.13.09,0.13,0.27a0.7,0.7,0,0,1,0,.17v0.59s0.09,0.31.27,0.86l0,0.21L171.43,31l0.13,0.29,0.13,0.06,0.08,0.13,0.1,0,0.19,0,0.1,0h0.06a1.06,1.06,0,0,0,.5-0.17,1.09,1.09,0,0,1,.44-0.44,1.35,1.35,0,0,1,.25-0.4l0.36-.25,0.13-.25a0.66,0.66,0,0,1,.36-0.1,1.21,1.21,0,0,1,.5.13A1.25,1.25,0,0,1,174.9,30.71Z" transform="translate(-58.09 -18.89)"/><path class="cls-1" d="M184.05,25.38l-0.17.69-0.78.1-0.42.27-0.27-.13-0.29.16-0.31.12-0.21.14v0.08l-0.44.22-0.29.38h-0.15a2.7,2.7,0,0,1-.48.44l-0.29.48-0.1,0a5,5,0,0,0-.15.5l-0.29.1-0.13.25-0.17.21,0,0.31-0.17.06v0.31l-0.06.06L179,30.46l-0.31.13,0,0.27-0.21.36,0.13,0.27-0.27.38a1.79,1.79,0,0,1,0,.29v0.08a0.34,0.34,0,0,0,0,.1l0,0.19,0.36,0.38-0.27.48-0.25.19-0.59.29-0.78-.31V33.08l-0.08-.19,0.06-.31a4.38,4.38,0,0,1,0-.5,0.89,0.89,0,0,1,0-.17V31.76l0-.21a0.46,0.46,0,0,1-.15-0.34,0.68,0.68,0,0,1,.15-0.38q0-.1,0-0.63l0.06-.06-0.06-.27,0-.25,0-.15,0.06-.48-0.13-.21,0.08-.23-0.08-.27a2.17,2.17,0,0,0,0-.34,0.73,0.73,0,0,0-.08-0.42l0.08-.13L176.55,27l-0.19-.27,0.11-.34-0.08-.13-0.08-.5V25.61a0.48,0.48,0,0,1-.1-0.31,1,1,0,0,1,.92-0.71l0.52,0.1,0.1,0.4L178,25.36l-0.06.57q0.06,0.42.15,0.92l0.06,0.34a1,1,0,0,1,0,.23,0.48,0.48,0,0,1-.1.27l0.06,0.42,0,0.46-0.08.21L178,28.86l0,0.21a0.59,0.59,0,0,0,.15-0.31l0.08-.31a0.41,0.41,0,0,1,.19-0.19l0.08-.31,0.29-.17,0-.25,0.23-.25,0.17-.31a1.33,1.33,0,0,1,.52-0.38l0-.06,0.19-.29,0.21,0,0.06-.06,0.08-.13,0.23-.13,0.13-.15,0.13,0,0.17-.08,0.08-.13,0.25-.13,0.36-.23,0.5-.17,0.31,0v0a0,0,0,0,0,0,0h0a0.65,0.65,0,0,0,.25-0.08,0.46,0.46,0,0,1,.29-0.08l0.29,0A0.55,0.55,0,0,1,184.05,25.38Z" transform="translate(-58.09 -18.89)"/><path class="cls-1" d="M194.11,31.68l-0.25.88-0.17.25a0.9,0.9,0,0,1-.65.5,1.21,1.21,0,0,1-.67-0.36l-0.42-.61L191.76,32l-0.08-.38L191.48,31V30l-0.06-.8,0.06-.44,0-.13-0.52.74h-0.06l0,0.06-0.36.57-0.59.63-0.44.61-0.46.44a2.69,2.69,0,0,1-.44.59l-0.42.29-0.25.34-0.46.15-0.19.23-0.46.08-0.38.23h-0.06l0,0.08-0.65-.08-0.78-.55a1.65,1.65,0,0,1-.4-0.78,0.26,0.26,0,0,0,.08-0.07l0.06-.07-0.23-.1-0.19-.42,0.1-.15-0.1-.25,0.1-.29,0-.38,0.15-.61V29.3l0.15-.19V28.67l0.15-.27,0-.31,0,0V27.77l0.21-.34,0-.29,0.13-.21,0.06-.13,0.08-.5,0.15-.44,0.1-.1,0-.27,0.27-.29,0.19-.44,0.52-.23,0.34-.36,1-.27,0.36,0,0.15,0.08,0-.17,0.48,0,0.17,0.06,0.15,0,0.13,0.1,0.4,0,0.08-.06,0.11,0.08,0.21,0V24.1l0.08,0.06,0.42,0.08L191,24.6l0.42,0.31,0.1,0.21,0,0,0.08-.29,0.13-.27,0-.48,0.08-.88-0.13-.34,0.17-.25-0.08-.23,0.06-.59-0.07-.5-0.22-.15,0.34-.34V20.59a1.45,1.45,0,0,0-.27-0.78h0.13l0.23-.34a2.92,2.92,0,0,1,.57-0.06,0.85,0.85,0,0,1,.48.13,1,1,0,0,1,.34,1h-0.1l0,0.08,0.19,0.17-0.13.34,0.19,0.4-0.1.13a0.74,0.74,0,0,1,.06.29,0.9,0.9,0,0,1-.06.31l0.1,0.13a0.65,0.65,0,0,1,0,.27,0.85,0.85,0,0,1-.1.42,13.19,13.19,0,0,1-.19,1.64,0.65,0.65,0,0,1,0,.19,1.13,1.13,0,0,1-.06.36V25.4A2.09,2.09,0,0,1,193,26l-0.07.63-0.11.17L192.93,27l-0.08.31,0.08,0.27-0.17.65,0.08,0.48v0.27l0,0.42a1.11,1.11,0,0,1,0,.27,0.23,0.23,0,0,1-.06.17L193,29.93l-0.17.42L193,30.79l-0.06.13L193,31l-0.06.13L193,31.24l0.19,0.17,0.36,0ZM191,26.55l-0.08,0a0.76,0.76,0,0,1-.26-0.27l-0.22-.38a0.67,0.67,0,0,1-.36-0.27h-0.13l-0.38-.23-0.48-.1-0.46,0-0.5.14L188,25.32l-0.17.06v0.08l-0.19,0a1.68,1.68,0,0,1-.59.59l-0.17.36-0.17.13-0.15.34-0.06.69-0.19.17v0.38l-0.17.15v0.5l-0.35.7-0.06.34,0,0.55,0.13,0.23-0.13.23,0.1,0.15-0.21.38,0.11,0.19,0.09,0.25,0.12,0.09H186l0.19-.17,0.17,0,0.36-.15,0-.13,0.4-.15,0-.13,0.25-.15v0l0.52-.55,0.25-.1,0.13-.27,0.27,0,0.34-.38-0.06,0,0.15-.15,0.21-.44,0.19-.19,0.1-.46,0.33-.11,0.24-.33,0.09-.06V27.5l0.31-.15Z" transform="translate(-58.09 -18.89)"/><path class="cls-1" d="M203.6,28.27l-0.13.38a4.61,4.61,0,0,1-.06.86l-0.13.21V30l-0.1.15-0.06.29-0.23.23-0.15.52-0.17.06-0.08.23-0.25.15-0.17.36-0.25.13,0,0.25-0.4.15a1.2,1.2,0,0,1-.67.48l-0.08,0a0.9,0.9,0,0,1-.78.44,0.92,0.92,0,0,1-.48.13l-0.21.15-0.21.06-0.27.21h-0.27l-0.29.06-0.36-.15-0.9-.06-0.32-.48-0.46-.48,0.1-.34-0.31-.71,0.1-.27-0.06-.5,0.06-.31V30.29a0.74,0.74,0,0,1,.22-0.59,2.24,2.24,0,0,1,.28-0.69h0.11l-0.06-.15,0.06-.29V28.25a1.09,1.09,0,0,0,.19-0.25l-0.06-.29V27.62a1.35,1.35,0,0,0,.15-0.61l0.44-.61,0.15-.13,0-.08h0.08l0.31-.36,0-.48,0.52-.19a0.91,0.91,0,0,0,.38-0.63H199a0.89,0.89,0,0,1,.42-0.13,0.79,0.79,0,0,1,.36.08l0.23,0,0.55-.21,0.29,0.27,0.23,0.15h0.17l0.31,0.17h0.17a6.7,6.7,0,0,1,.63.69l0,0.1,0.15,0.08L203,26.34l0.4,1v0.21Zm-1.39.5,0-.1a0.53,0.53,0,0,1-.17-0.31l0.06-.1-0.19-.4,0-.4-0.08-.1a0.71,0.71,0,0,1-.29-0.33,0.41,0.41,0,0,1-.19-0.42l-0.13,0L201,26.15,200.81,26l-0.44-.17-0.17,0a0.17,0.17,0,0,1-.17-0.08l-0.42.46-0.27.58L198.9,27l-0.06.23-0.21.1-0.08.54-0.25.13a2,2,0,0,0-.08.54l-0.34.31,0.1,0.06a0.57,0.57,0,0,1-.21.44,4.07,4.07,0,0,1-.19.42v0.5l-0.23.56,0,0.1v0.58l-0.08.29,0,0.29,0.19,0.27,0.29,0.1,0.1,0h0.71l0.08-.21h0.08a0.14,0.14,0,0,1,.15.06l0.19-.06,0.17,0.06,0.27-.19,0-.06,0.19,0a1.54,1.54,0,0,1,.69-0.47l0-.11,0.42-.3,0.23-.34,0.34-.17,0-.1,0.11-.23V30.09l0.25-.21,0.08-.15,0.1-.13a1.32,1.32,0,0,1-.08-0.36,0.78,0.78,0,0,1,.13-0.4Z" transform="translate(-58.09 -18.89)"/><path class="cls-1" d="M216.87,32a1,1,0,0,1-.38.61l-0.17.06-0.15.19-0.38.1a0.28,0.28,0,0,1-.21.15l0,0h-0.06a2.47,2.47,0,0,1-1.11.23h-0.17l-0.52-.1L213.32,33l-0.8-.67-0.17-.57L212,31.51a0.46,0.46,0,0,0,.06-0.27,1,1,0,0,0-.17-0.42l0.06-.5V30.23a2,2,0,0,0-.15-0.65l0.13-.63-0.27.55-0.31,0,0,0.44a0.88,0.88,0,0,1-.4.08l-0.23.5-0.27.31a0.57,0.57,0,0,1-.29.21l-0.06,0-0.76.78h-0.08l-0.4.48-0.38.19-0.21.28-0.48.15-0.69.28-0.42-.21a0.59,0.59,0,0,1-.59-0.38l-0.19-.11a0.91,0.91,0,0,1,0-.17V32.27l-0.34-.3,0.08-.13-0.25-.59,0.08-.08V31a0.17,0.17,0,0,1-.06-0.11,2.07,2.07,0,0,1,0-.45l0-.55-0.06-.45a0.86,0.86,0,0,0,.06-0.29,0.48,0.48,0,0,0-.08-0.27l0.23-.17V28.46l-0.08-.69,0.23-1.34a3.9,3.9,0,0,0-.19-1,0.81,0.81,0,0,1,.88-0.73l0.17,0.06,0.29,0,0.38,0.42-0.17.55v0.9l0.06,0.69-0.13.25,0.06,0.17-0.17.34v0.46a4,4,0,0,1,0,.57l0,0.15,0,0.31,0,0.25v0.29a0.38,0.38,0,0,1,.17.31,0.48,0.48,0,0,1-.17.34V30.9a2.15,2.15,0,0,1,.11.46l0.2,0.19,0.31-.21a0.4,0.4,0,0,1,.31-0.27V30.86a2,2,0,0,0,.4-0.06l0-.19,0.36-.15,0.06-.06a1.37,1.37,0,0,1,.48-0.27V30l0.4-.29a0.82,0.82,0,0,1,.52-0.53,1.72,1.72,0,0,1,.31-0.27l0.27-.36V28.52l0.08,0L211,28.4l0.1-.29,0.44-.19,0.08,0,0.15-.15V27.56l0.12,0a0.72,0.72,0,0,1,.33-0.5l0.31-.71,0.12-.37,0-.08h0.09l0.15-.1-0.13,0a3.4,3.4,0,0,0,.36-0.8l0.61,0,0.48,0.4,0.21,0.34-0.23.9-0.31.42-0.25.82-0.21.13v0.31l-0.13.23,0.06,0.38-0.17.15,0.08,0.67,0,0.94h0.11v0.55l0.29,0.36L214,31.61l0,0.1a1.64,1.64,0,0,1,.36.1l0.52,0,0.31-.08,0.57-.27a0.94,0.94,0,0,1,.42-0.08A0.52,0.52,0,0,1,216.87,32Z" transform="translate(-58.09 -18.89)"/><path class="cls-1" d="M228.28,30.58l-0.21.78,0.08,0.25-0.08.06a0.68,0.68,0,0,1,.13.38,0.56,0.56,0,0,1-.06.25v0q0,0.25-.19,2.06l0,0.4v0.08l0,0.08,0,0.08,0,0.13-0.06.06-0.06.13h-0.08l0,0.1,0,0.13a0.51,0.51,0,0,1-.1.29l-0.1.34a1.19,1.19,0,0,1-.21.42,5.11,5.11,0,0,1-.52.74l-0.36.27-0.4.34-0.31.15-0.25.19-0.17,0a2.33,2.33,0,0,1-.94.27l-0.13,0-0.19.08v0a2.75,2.75,0,0,1-.61.08H222.5l-0.5-.1-0.44.1-0.21-.19-0.63-.06-0.42-.38L220,38a1.38,1.38,0,0,1-1-1.12l0-.08L219,36.49a0.77,0.77,0,0,1,.46-0.42,0.63,0.63,0,0,1,.34-0.11,11.75,11.75,0,0,0,1.2.15l0,0.31,0.25,0.17v0.25l-0.17.21,1,0.29,0.48-.1v0.15l0.15,0h0l0.27,0,0,0.08,0.21-.1a2.6,2.6,0,0,1,1-.13,1.4,1.4,0,0,0,.21-0.17l0.1,0h0.13a0.36,0.36,0,0,0,.25-0.25,0.08,0.08,0,0,0,.08.06,0.2,0.2,0,0,0,.1,0l0.08,0h0l0.68-.58,0.31-.48,0-.27,0.23-.29,0-.27,0.12-.25,0.1-.57,0.16-.52V33.19a3.51,3.51,0,0,1,.13-0.92l-0.13-.34v-1l-0.13-.36V30l-0.17-.44V28.84l0-.1-0.15,0-0.13.32-0.31.27-0.38.61-0.54.38-0.59.61a5.5,5.5,0,0,1-1.17.93l-0.21.25-0.31.19-0.29.15-0.27.27-0.33.17a0.91,0.91,0,0,1-.48.23,1.81,1.81,0,0,1-1,.32h-0.52l-0.25,0-0.38,0-0.54-.52-0.4-.52L218,32l-0.15-.84L218,30.5l0.21-.71,0-.23,0.19-.65,0.19-.38a2.22,2.22,0,0,0,.08-0.65l0.46-.86a0.88,0.88,0,0,1,.31-0.36l0.21-.36,0.25-.27a1,1,0,0,1,.34-0.48,0.5,0.5,0,0,0,.24-0.31,1.12,1.12,0,0,1,.79-0.42l-0.11,0,0.11,0q0.06-.1.29-0.42l0.25,0,0.19-.13a1.07,1.07,0,0,1,.71-0.29h0.15l0.55-.21,0.31,0.1H224L224.27,24a0.46,0.46,0,0,1,.34.19l0.29,0.29,0.08,0,0,0.08,0.19,0.29,0,0.1-0.06.33,0,0.23-0.27.42-0.6.08-0.32-.5-0.3-.1-0.15-.15h-0.21l-0.44.21,0,0.17h-0.53a0.65,0.65,0,0,1-.46.34l-0.25.15-0.17.4-0.15,0,0,0.19H221l-0.26.45-0.23.15-0.08.29-0.31.44,0,0.42-0.25.25-0.23.9-0.17.17,0,0.23-0.26.8,0.06,0.25,0,0.25a0.76,0.76,0,0,1,.15.44l0.15,0L219.6,32a0.83,0.83,0,0,1,.46.08,3.13,3.13,0,0,1,1-.32,0.89,0.89,0,0,1,.36-0.43l0.94-.51,0.06,0a0.48,0.48,0,0,1,.13-0.31l0.38-.17a0.37,0.37,0,0,0,.19-0.27l0.34-.08,0.21-.19,0.53-.71,0.15,0.08a4.68,4.68,0,0,1,.46-0.57l0.5-.59,0-.27a3.61,3.61,0,0,0,.59-1.34l-0.1-.44-0.17-.29,0.13-.31-0.17-.23,0-.29-0.06-.21,0.21-.38a1.29,1.29,0,0,1,.48-0.17,1.08,1.08,0,0,1,.5.19l0.15,0.27,0.27,0.21,0,0.46q0.06,0.19.15,0.57a0.89,0.89,0,0,1,.1.44v0.15l0,0.13,0.23,0.34-0.06.38,0.13,0.17a0.79,0.79,0,0,1,.06.31,1,1,0,0,1,0,.23L228.07,28l-0.19.52,0.08,0.4a0.86,0.86,0,0,1,.1.38,1.15,1.15,0,0,1-.1.42l0.13,0.1Z" transform="translate(-58.09 -18.89)"/><path class="cls-1" d="M239.11,24.68L238.9,25l0.17,0.5-0.27.31-0.1.44-0.06.1,0,0.1a0.6,0.6,0,0,1-.15.44l0,0.06V27a0.7,0.7,0,0,1,.06.27,0.36,0.36,0,0,1,0,.15l0,0.08-0.08.23L238.52,28l-0.17.17,0.06,0.29,0.13,0.15-0.19.17v0.34l-0.15.34,0.1,0.34-0.13.17,0.21,0.15-0.29.48,0,0.06,0.21,0-0.15.48v0.08a1,1,0,0,1,0,.23l0,0.06,0.34,0L238.75,32l-0.15.31,0.23,0a1.34,1.34,0,0,1,.15.44l-0.31.31a1.81,1.81,0,0,1-.42.29l-0.36.19-0.1-.1-0.21.1-0.65-.75V32.44a2.7,2.7,0,0,1-.13-0.77V31.54l-0.13-1.23,0.17-.88-0.13-.5-0.36.59-0.19.55-0.17.08-0.29.46-0.52.49-0.15.25-0.46.4-0.1.27-0.67.42-0.71.8-0.4.08-0.27.21a1,1,0,0,1-.8-0.4,1.53,1.53,0,0,1-1-1.33l0.1-.06,0-.13,0-.25-0.13-.27,0.13-.29,0-.44,0.15-.69V29.58a0.19,0.19,0,0,1,0-.08,0.7,0.7,0,0,1,0-.21,0.44,0.44,0,0,1,0-.17,1.63,1.63,0,0,1,.13-0.48l0.15-.06a0.3,0.3,0,0,1-.13-0.23V28.07a0.4,0.4,0,0,1,.25-0.38,1.26,1.26,0,0,1,.23-0.42l-0.1-.17,0.25-.31V26.7a1.14,1.14,0,0,1,.27-0.74l0-.38L232,25.5V25.44a0.16,0.16,0,0,1,0-.06,0.28,0.28,0,0,1,.08-0.21V25a2.74,2.74,0,0,1,.44-0.63,4.4,4.4,0,0,0,.52-0.74l0.1,0.1,0.23-.1,0.1,0,0.69-.31,1.62,0.08v0.15l0.5,0.1a0.62,0.62,0,0,1,.63.31,0.61,0.61,0,0,1,0-.15V23.74l0.44,0.4,0.4,0.08,0.76-.19,0.27,0.52Zm-2,1.09L237,25.63l-0.17,0-0.65-.52L235.79,25h-0.34l0-.08-0.17.08-0.19-.08h-0.55L234.58,25l-0.48.17-0.08.11-0.06,0a3,3,0,0,0-.53.52l-0.15.5-0.08.19,0.21,0.29-0.36.27,0,0.08a1.56,1.56,0,0,0-.23.78l-0.17.21v0.38l-0.17.19,0,0.19-0.06,0v0.29l-0.06.1a1.52,1.52,0,0,1,0,.4l0,0.1-0.19.4,0.08,0.13-0.15.21,0.15,0.4-0.23.29,0,0.4v0.06l0.08,0,0.1,0,0.21-.19,0-.17,0.29,0,0.06-.15,1.23-1,0.13,0,0.15-.36a2.4,2.4,0,0,0,.36-0.17l0.14-.33h0.17l-0.06-.36,0.29,0a1.47,1.47,0,0,1,.14-0.21,2.14,2.14,0,0,1,.2-0.23L236.57,27l0.17-.31,0-.08,0.15-.23,0-.23L237.1,26Z" transform="translate(-58.09 -18.89)"/><path class="cls-1" d="M247.36,30.9a0.48,0.48,0,0,1-.17.38,2.19,2.19,0,0,1-.54.52l-0.21.15-0.19.25-0.19.08-0.29.19-0.21,0-0.08.08a1.26,1.26,0,0,0-.65.42,0.48,0.48,0,0,1-.27.1l-0.15,0a1.8,1.8,0,0,1-.92.21,1.49,1.49,0,0,1-.63-0.08L242.49,33l-0.12-.21V32.73a0.52,0.52,0,0,0-.24-0.44L242,31.87l-0.17-.19-0.11-.78V30.1l0.06-.13a0.6,0.6,0,0,1-.06-0.27q0.11-.88.1-1.11l-0.19-.38,0.19-.31,0.06-.52,0-.36L242,26.7l-0.13-.42,0.23-.29,0-.19V24l0.06-.9L242.14,23V21.56l0.12-1.26a3.44,3.44,0,0,0,.76-0.21,0.61,0.61,0,0,1,.53.36l0,0.17,0.31,0.31-0.08.44v0.08a1.39,1.39,0,0,1-.15.52l0.06,0.44,0.08,0.4-0.15.44a1.93,1.93,0,0,1-.1.65,2.15,2.15,0,0,1,0,.34l0,0.13,0.17,0.23-0.06.23a0.53,0.53,0,0,1,0,.57l0,0.19-0.13.67V26.7l-0.15.44,0.08,0.4-0.08.92,0.06,0.1-0.1.48,0,0.59a0.84,0.84,0,0,0,0,.15q0,0.36,0,.59l0.06,0.29V31l0.13,0.27,0,0.1a0.94,0.94,0,0,1,.23.34h0.19L244,31.78l0.13-.17,0.19,0,0.19,0h0.06a0.53,0.53,0,0,0,.33-0.21l0.13-.06a0.75,0.75,0,0,1,.48-0.31l0.4-.34a0.48,0.48,0,0,1,.36-0.44,0.6,0.6,0,0,0,.42-0.1,0.81,0.81,0,0,1,.53.22A1.09,1.09,0,0,1,247.36,30.9Z" transform="translate(-58.09 -18.89)"/><path class="cls-1" d="M251.44,32.66l-0.15.06v0.15l-0.23.17-0.19.25-0.4,0-0.13,0a0.59,0.59,0,0,1-.25,0,0.92,0.92,0,0,1-.44-0.13,0.85,0.85,0,0,1-.21-0.09,0.45,0.45,0,0,1-.19-0.26l-0.17-.13-0.08,0V32.16a0.65,0.65,0,0,1,.5-0.55,4.89,4.89,0,0,1,.48-0.36l0.36,0.1,0.06,0.06,0.06-.06,0.13,0.08h0.1a0.39,0.39,0,0,1,.36.17l0.15,0.27,0.23,0.29,0,0.29Z" transform="translate(-58.09 -18.89)"/><path class="cls-1" d="M261.77,29.91l-0.4.38,0,0.13A0.94,0.94,0,0,1,261,31a3.13,3.13,0,0,1-1.41,1.39l-0.31.25-0.27,0-0.34.25-0.23,0-0.52.34-0.34,0-0.38.21-0.29-.13-0.15.13-0.4-.06-0.4.06-0.15-.13-0.42-.08-0.61-.46-0.34-.42a1.18,1.18,0,0,1-.32-0.67V31.66l-0.21-.31V31.07a1.92,1.92,0,0,1-.06-0.46V30.46l-0.1-.36,0.1-.25-0.08-.17,0.25-.4L254,28.95l0.17-.55,0.08-.13,0.08-.5,0-.08,0.25-.27,0-.21,0.17-.48,0.27-.59,0.38-.34,0.08-.19,0.13-.23,0-.21,0.34-.4,0.29-.08a1,1,0,0,1,1.05-.46,1.94,1.94,0,0,1,1,.44,0.59,0.59,0,0,1,.36.19l0.44,0,0.29,0.38a1.69,1.69,0,0,1,.14.42l0.16,0.17-0.06.31a3.37,3.37,0,0,1,0,.46l0.11,0.08V27l0.08,0.65a1.69,1.69,0,0,1-1,.5,2.13,2.13,0,0,0-.74-0.82v-0.7L258,26.42l0-.17L257.79,26l-0.11-.08-0.19.06h-0.27a1,1,0,0,0-.53.4q-0.25.33-.51,0.71l0,0.21-0.13.1v0.38l-0.27.29-0.34.92,0,0.25-0.17.38,0.06,0.46-0.13.06,0,0.59,0,0.1,0.25,0.25,0.11,0.44,0.3,0.08,0,0.17,0.36,0.07,0.27,0.07a0.71,0.71,0,0,1,.36-0.08H257a1.21,1.21,0,0,1,.46-0.1l0.38-.13a0.84,0.84,0,0,1,.71-0.34h0.13a0.15,0.15,0,0,0,.15-0.1,1.09,1.09,0,0,1,.73-0.46,2.13,2.13,0,0,0,.67-0.84,0.78,0.78,0,0,0,.38-0.52l0.13-.08,0.06-.48a1,1,0,0,1,1,1v0.17Z" transform="translate(-58.09 -18.89)"/><path class="cls-1" d="M270.44,28.27l-0.13.38a4.61,4.61,0,0,1-.06.86l-0.13.21V30l-0.1.15L270,30.4l-0.23.23-0.15.52-0.17.06-0.08.23-0.25.15-0.17.36-0.25.13,0,0.25-0.4.15a1.2,1.2,0,0,1-.67.48l-0.08,0a0.9,0.9,0,0,1-.78.44,0.92,0.92,0,0,1-.48.13l-0.21.15-0.21.06-0.27.21h-0.27L265,34l-0.36-.15-0.9-.06-0.32-.48-0.46-.48,0.1-.34-0.31-.71,0.1-.27-0.06-.5,0.06-.31V30.29A0.74,0.74,0,0,1,263,29.7a2.24,2.24,0,0,1,.28-0.69h0.11l-0.06-.15,0.06-.29V28.25a1.09,1.09,0,0,0,.19-0.25l-0.06-.29V27.62A1.35,1.35,0,0,0,263.7,27l0.44-.61,0.15-.13,0-.08h0.08l0.31-.36,0-.48,0.52-.19a0.91,0.91,0,0,0,.38-0.63h0.27a0.89,0.89,0,0,1,.42-0.13,0.79,0.79,0,0,1,.36.08l0.23,0,0.55-.21,0.29,0.27,0.23,0.15h0.17l0.31,0.17h0.17a6.7,6.7,0,0,1,.63.69l0,0.1,0.15,0.08,0.44,0.57,0.4,1v0.21Zm-1.39.5,0-.1a0.53,0.53,0,0,1-.17-0.31l0.06-.1-0.19-.4,0-.4-0.08-.1a0.71,0.71,0,0,1-.29-0.33,0.41,0.41,0,0,1-.19-0.42l-0.13,0-0.25-.42L267.65,26l-0.44-.17-0.17,0a0.17,0.17,0,0,1-.17-0.08l-0.42.46-0.27.58-0.44.23-0.06.23-0.21.1-0.08.54-0.25.13a2,2,0,0,0-.08.54l-0.34.31,0.1,0.06a0.57,0.57,0,0,1-.21.44,4.07,4.07,0,0,1-.19.42v0.5l-0.23.56,0,0.1v0.58l-0.08.29,0,0.29,0.19,0.27,0.29,0.1,0.1,0h0.71l0.08-.21h0.08a0.14,0.14,0,0,1,.15.06l0.19-.06,0.17,0.06,0.27-.19,0-.06,0.19,0a1.54,1.54,0,0,1,.69-0.47l0-.11,0.42-.3,0.23-.34,0.34-.17,0-.1,0.11-.23V30.09l0.25-.21,0.08-.15,0.1-.13a1.32,1.32,0,0,1-.08-0.36,0.78,0.78,0,0,1,.13-0.4Z" transform="translate(-58.09 -18.89)"/><path class="cls-1" d="M289.74,30.71a1,1,0,0,1-.27.44,0.64,0.64,0,0,1-.19.34,0.67,0.67,0,0,1-.25.29l-0.08.13a0.26,0.26,0,0,1-.23.13l-0.1.21h-0.15l-0.1.19-0.17.06-0.13.15-0.1.08a0.76,0.76,0,0,0-.52.19,1.56,1.56,0,0,1-.57.1,1.3,1.3,0,0,1-.59-0.15q-0.34,0-.34-0.1l-0.29,0-0.06-.06-0.13-.25-0.23-.19a1,1,0,0,1-.25-0.5,2.65,2.65,0,0,1-.29-0.8l-0.21-.34V30.4l-0.15-.63,0-.25-0.13-.65,0.06-.52-0.1-.15-0.21.52-0.47.54a0.22,0.22,0,0,1-.18.09l-0.08,0-0.13.23a0.12,0.12,0,0,0,0,.08,0.14,0.14,0,0,0,.15.15,2.86,2.86,0,0,0-.21.29,0.92,0.92,0,0,1-.15.23l-0.06-.1,0,0.29a1.1,1.1,0,0,0-.38.63q-0.21.27-.65,0.78l-0.27.29c-0.07,0-.1,0-0.1,0v0a0.94,0.94,0,0,1-.44.46l-0.25.31h-0.15l-0.5.19a0.77,0.77,0,0,1-.78-0.55l0-.23-0.13-.27V32l-0.17-.61V31.17L278.8,31l0.06-.65V29.58l-0.1-.23,0.17-.4q0-.17-0.13-0.55l0.06-.19,0.06-.61-0.17-.44,0-.36-0.06-.19-0.15-.4-0.15.08-0.27.34-0.25.23-0.5.63,0,0.23-0.36.38-0.15.29-0.15.17a0.79,0.79,0,0,1-.46.65l0,0.29a2.09,2.09,0,0,0-.26.34,1,1,0,0,1-.19.24l-0.18.14-0.25.36a0.52,0.52,0,0,1-.27.5v0.13a1.91,1.91,0,0,1-.34.34l0,0-0.06.3a0.49,0.49,0,0,0-.32.4l-0.06.08a0.59,0.59,0,0,1-.36.51l-0.3.28a1.4,1.4,0,0,1-.45.17,0.86,0.86,0,0,1-.73-0.9l-0.09-.46a0.29,0.29,0,0,1,0-.13,0.59,0.59,0,0,1,.08-0.29l-0.08-.4V30.39a1,1,0,0,1,.15-0.55q-0.06-.44-0.06-0.51V29l0.21-.38-0.16-.13a1.38,1.38,0,0,1-.05-0.19,1.08,1.08,0,0,1,.29-0.51l-0.15-.4,0.08-.25-0.13-.61,0-.29-0.15-.46,0.06-.32L272.33,25a1.16,1.16,0,0,1,.88-0.82,0.69,0.69,0,0,1,.47.21l0,0.21a0.61,0.61,0,0,1,.35.57,3.29,3.29,0,0,0-.06.44l-0.08,0L274.12,26l-0.16.17,0,0.08,0.17,1,0,0.82-0.06.15,0.08,0.34a0.34,0.34,0,0,1,.06.21,0.48,0.48,0,0,1-.17.34,1,1,0,0,1-.1.48l0.06,0.63v0.25l0,0,0.13-.19,0.29-.52h0.06a0.53,0.53,0,0,0,.27-0.4l0.15-.4a1.36,1.36,0,0,1,.32-0.4l0.08-.38,0.25-.38,0.08-.29,0.21-.15,0-.06a5.16,5.16,0,0,1,.46-0.44l0.13-.06,0-.21,0.1-.06a0.77,0.77,0,0,1,.52-0.59L277,25.78l0.08,0a0.08,0.08,0,0,1,0-.06,0.33,0.33,0,0,1,0-.13l0.34-.15,0.06-.34h0.23a0.85,0.85,0,0,1,0-.15l0.42-.34a1.79,1.79,0,0,1,.4-0.08,2.35,2.35,0,0,1,.69.15l0.21,0.29,0.08,0,0.1,0.25,0.29,0.4v0.27l0.19,0.21v0.32a2.15,2.15,0,0,1,.23.86l-0.06.25,0.13,0.36-0.23.23,0.08,0.46,0,0.13,0,0.1a1.77,1.77,0,0,0,0,.32,1.72,1.72,0,0,0,.11.42l-0.06.23,0.06,0.29-0.06.06q0,0.29.13,1v0.08l0.66-.74,0.21-.4,0.27-.4v0a0.74,0.74,0,0,1,.27-0.46,0.51,0.51,0,0,1,.21-0.31l0.17-.1a1,1,0,0,1,.44-0.59l0.1-.29,0.19-.25,0.21-.21a1,1,0,0,0,.29-0.46l0.17-.25,0.08-.31,0.23-.13,0.23-.29,0.23-.5c-0.06,0-.08,0-0.08,0l0-.08,0.16-.13,0.17-.33,0.39-.14,0.08,0,0.37,0L285.84,25l0.29,0.34,0.06,0.29,0,0.23-0.1.08-0.23.44-0.1.48a0.47,0.47,0,0,1,.13.38,0.53,0.53,0,0,0-.06.27l-0.06.17V28a1.27,1.27,0,0,1,0,.27l-0.08.1,0.1,0.15-0.17.19c0.08,0,.13.09,0.13,0.27a0.7,0.7,0,0,1,0,.17v0.59s0.09,0.31.27,0.86l0,0.21L286.28,31l0.13,0.29,0.13,0.06,0.08,0.13,0.1,0,0.19,0,0.1,0h0.06a1.06,1.06,0,0,0,.5-0.17A1.09,1.09,0,0,1,288,31a1.35,1.35,0,0,1,.25-0.4l0.36-.25,0.13-.25a0.66,0.66,0,0,1,.36-0.1,1.21,1.21,0,0,1,.5.13A1.25,1.25,0,0,1,289.74,30.71Z" transform="translate(-58.09 -18.89)"/></svg>